<svg width="29" height="32" viewBox="0 0 29 32" fill="none" xmlns="http://www.w3.org/2000/svg">
<rect width="29" height="32" fill="#D9D9D9"/>
<path d="M14.5172 4C11.6528 4 8.85268 4.82109 6.471 6.35943C4.08932 7.89777 2.23303 10.0843 1.13686 12.6424C0.040699 15.2006 -0.246108 18.0155 0.312712 20.7313C0.871533 23.447 2.25088 25.9416 4.27633 27.8995C6.30178 29.8574 8.88236 31.1908 11.6917 31.731C14.5011 32.2712 17.4131 31.9939 20.0595 30.9343C22.7059 29.8747 24.9678 28.0803 26.5592 25.778C28.1505 23.4757 28.9999 20.7689 28.9999 18C28.9999 14.287 27.4741 10.726 24.758 8.1005C22.042 5.475 18.3583 4 14.5172 4ZM12.4482 23.59L7.27581 18.59L8.92064 17L12.4482 20.41L20.1137 13L21.7648 14.586L12.4482 23.59Z" fill="#137500"/>
</svg>
