<svg width="20" height="20" viewBox="0 0 20 20" fill="none" xmlns="http://www.w3.org/2000/svg">
<path d="M14.8824 18.8235C14 18.8235 13 18.7058 12 18.4117C11.8236 18.3529 11.7059 18.2352 11.6471 18.1176L10 15.1176L8.41179 18.1176C8.35297 18.2352 8.1765 18.3529 8.05885 18.4117C4.05885 19.5294 0.647088 17.9411 0.470617 17.8235C0.235323 17.7058 0.117676 17.4705 0.117676 17.2352C0.117676 17.0588 0.470617 12.4705 1.05885 10.0588C1.82356 7.11759 2.00003 4.647 2.00003 4.647C2.00003 4.35288 2.29415 4.11759 2.58826 4.11759H17.4118C17.7059 4.11759 18 4.35288 18 4.647C18 4.647 18.1765 7.17641 18.9412 10.0588C19.4706 12.4117 19.8824 16.9999 19.8824 17.1764C19.8824 17.4117 19.7647 17.647 19.5294 17.7647C19.4118 17.9411 17.4706 18.8235 14.8824 18.8235ZM12.5294 17.3529C15.2941 18.0588 17.7647 17.2941 18.7059 16.9411C18.5883 15.7058 18.2353 12.2941 17.8236 10.4117C17.2353 8.17641 17 6.23524 16.9412 5.35288H3.11768C3.00003 6.29406 2.76473 8.23524 2.23532 10.4117C1.76473 12.2941 1.41179 15.7646 1.35297 16.9999C2.29415 17.3529 4.76474 18.1176 7.52944 17.4117L9.52944 13.647C9.64709 13.4705 9.82356 13.3529 10.0589 13.3529C10.2941 13.3529 10.4706 13.4705 10.5883 13.647L12.5294 17.3529ZM2.05885 0.764648H17.9412V2.99994H2.05885V0.764648Z" fill="#828282"/>
</svg>
