<svg width="20" height="21" viewBox="0 0 20 21" fill="none" xmlns="http://www.w3.org/2000/svg">
<g clip-path="url(#clip0_21_611)">
<mask id="mask0_21_611" style="mask-type:luminance" maskUnits="userSpaceOnUse" x="0" y="0" width="20" height="21">
<path d="M0 0.375H20V20.375H0V0.375Z" fill="white"/>
</mask>
<g mask="url(#mask0_21_611)">
<path d="M18.2353 0.375H1.76471C0.790086 0.375 0 1.16509 0 2.13971V18.6103C0 19.5849 0.790086 20.375 1.76471 20.375H18.2353C19.2099 20.375 20 19.5849 20 18.6103V2.13971C20 1.16509 19.2099 0.375 18.2353 0.375Z" fill="#2E77BC"/>
<path d="M1.79118 9.02517L1.41059 8.09223L1.02941 9.02517H1.79118ZM10.2188 8.65812C10.1412 8.70753 10.0494 8.70753 9.94353 8.70753H9.26706V8.184H9.95765C10.0565 8.184 10.1553 8.19164 10.2259 8.22694C10.2965 8.26223 10.3453 8.33282 10.3453 8.43165C10.3318 8.53753 10.2894 8.61517 10.2188 8.65812ZM15.0635 9.02517L14.6753 8.09223L14.2876 9.02517H15.0635ZM6.03647 10.0428H5.46588V8.20576L4.65412 10.0428H4.16059L3.35 8.20576V10.0428H2.20706L1.99529 9.51988H0.832941L0.614118 10.0434H0.00705882L1.00824 7.69635H1.84118L2.78647 9.91576V7.69694H3.69588L4.42941 9.28694L5.09941 7.69694H6.03L6.03647 10.0428ZM8.31471 10.0428H6.45294V7.69694H8.32176V8.18459H7.01V8.60812H8.28647V9.0887H7.01V9.55517H8.31471V10.0428ZM10.9524 8.32517C10.9524 8.70047 10.7053 8.89106 10.5571 8.94753C10.6771 8.99694 10.7829 9.07459 10.8324 9.14576C10.91 9.2587 10.9241 9.36459 10.9241 9.57635V10.0358H10.3594V9.73929C10.3594 9.59812 10.3735 9.39282 10.2682 9.27988C10.1835 9.19517 10.0635 9.18106 9.85882 9.18106H9.25941V10.0358H8.70235V7.68988H9.98588C10.2682 7.68988 10.48 7.69694 10.6624 7.80282C10.8465 7.91576 10.9524 8.06341 10.9524 8.32517ZM11.8476 10.0428H11.2765V7.69694H11.8476V10.0428ZM18.4629 10.0428H17.6729L16.6147 8.28341V10.0428H15.4794L15.2612 9.51988H14.0971L13.8853 10.0434H13.23C12.9547 10.0434 12.6165 9.97929 12.4188 9.78165C12.2212 9.584 12.1229 9.31517 12.1229 8.884C12.1229 8.53753 12.1865 8.21929 12.4259 7.96517C12.6094 7.78164 12.8912 7.68988 13.2724 7.68988H13.8153V8.19165H13.2859C13.0818 8.19165 12.9688 8.21988 12.8565 8.33282C12.7576 8.43165 12.6941 8.61517 12.6941 8.86282C12.6941 9.11694 12.7435 9.294 12.8488 9.414C12.9335 9.50576 13.0888 9.534 13.2371 9.534H13.4906L14.2806 7.68988H15.12L16.0647 9.9087V7.68988H16.9176L17.8982 9.32223V7.68988H18.47V10.0428H18.4629ZM0 10.5022H0.951765L1.17059 9.97929H1.65L1.86176 10.5028H3.73765V10.1064L3.90706 10.5093H4.88L5.04941 10.1064V10.5093H9.71765V9.65459H9.80941C9.87294 9.65459 9.89412 9.66165 9.89412 9.76753V10.5093H12.3059V10.3116C12.5035 10.4175 12.8065 10.5093 13.2018 10.5093H14.2171L14.4359 9.98635H14.9153L15.1271 10.5099H17.0876V10.0146L17.3835 10.5093H18.9494V7.23047H17.3976V7.6187L17.1794 7.23047H15.5853V7.6187L15.3876 7.23047H13.2371C12.8771 7.23047 12.56 7.27988 12.3059 7.42106V7.23047H10.8176V7.42106C10.6559 7.27988 10.43 7.23047 10.1835 7.23047H4.76706L4.40765 8.07812L4.03412 7.23047H2.32V7.6187L2.13706 7.23047H0.676471L0 8.78517V10.5022ZM20.0118 11.9316H18.9965C18.8976 11.9316 18.8271 11.9387 18.7712 11.974C18.7141 12.0093 18.6865 12.0658 18.6865 12.1434C18.6865 12.2352 18.7359 12.2922 18.8059 12.3199C18.8624 12.3416 18.9259 12.3487 19.0247 12.3487L19.3282 12.3558C19.6312 12.3628 19.8359 12.4193 19.9629 12.5464C19.9841 12.5675 19.9982 12.5816 20.0124 12.6028L20.0118 11.9316ZM20.0118 13.4793C19.8782 13.6769 19.61 13.7764 19.2506 13.7764H18.1706V13.2746H19.2429C19.3488 13.2746 19.4259 13.2605 19.4682 13.2181C19.4896 13.1984 19.5064 13.1742 19.5174 13.1473C19.5284 13.1203 19.5333 13.0913 19.5318 13.0622C19.5327 13.0327 19.5269 13.0033 19.5146 12.9763C19.5024 12.9494 19.4841 12.9257 19.4612 12.9069C19.4188 12.8716 19.3624 12.8575 19.2641 12.8575C18.7418 12.8364 18.0865 12.8716 18.0865 12.1293C18.0865 11.7905 18.3047 11.4293 18.89 11.4293H20.0047V10.9634H18.9676C18.6576 10.9634 18.4318 11.0411 18.2694 11.154V10.9634H16.7394C16.4924 10.9634 16.21 11.0269 16.0688 11.154V10.9634H13.3412V11.154C13.1224 10.9987 12.7559 10.9634 12.5865 10.9634H10.7812V11.154C10.6118 10.9846 10.2241 10.9634 9.99118 10.9634H7.97471L7.51588 11.4652L7.08647 10.9634H4.08824V14.2358H7.04294L7.51529 13.7269L7.96706 14.2358H9.78647V13.4652H9.96294C10.2024 13.4722 10.4918 13.4581 10.7382 13.3522V14.2358H12.2406V13.3805H12.3112C12.4029 13.3805 12.41 13.3875 12.41 13.4793V14.2358H16.9865C17.2759 14.2358 17.5788 14.1575 17.7482 14.024V14.2358H19.1941C19.4971 14.2358 19.7865 14.1934 20.0118 14.0869V13.4793ZM17.7835 12.5393C17.8894 12.6522 17.9529 12.794 17.9529 13.034C17.9529 13.5358 17.6353 13.7764 17.0782 13.7764H15.9924V13.2746H17.0782C17.1841 13.2746 17.2618 13.2605 17.3041 13.2181C17.3447 13.1763 17.3675 13.1205 17.3676 13.0622C17.3676 12.9916 17.3394 12.9422 17.2971 12.9069C17.2547 12.8716 17.1982 12.8575 17.0994 12.8575C16.5776 12.8364 15.9218 12.8716 15.9218 12.1293C15.9218 11.7905 16.1335 11.4293 16.7188 11.4293H17.84V11.9316H16.8176C16.7188 11.9316 16.6482 11.9387 16.5918 11.974C16.5282 12.0093 16.5071 12.0658 16.5071 12.1434C16.5071 12.2358 16.5565 12.2922 16.6271 12.3199C16.6835 12.3416 16.7471 12.3487 16.8459 12.3487L17.1488 12.3558C17.4524 12.3628 17.6565 12.4122 17.7835 12.5393ZM12.7412 12.3981C12.6635 12.4405 12.5718 12.4475 12.4659 12.4475H11.7894V11.924H12.48C12.5788 11.924 12.6776 11.924 12.7482 11.9669C12.8188 12.0022 12.8612 12.0799 12.8612 12.1787C12.8612 12.2711 12.8188 12.3552 12.7412 12.3981ZM13.08 12.6875C13.2065 12.7369 13.3053 12.8152 13.3547 12.8858C13.4324 12.9987 13.4465 13.1046 13.4465 13.3169V13.7834H12.8818V13.4928C12.8818 13.3516 12.8965 13.1464 12.7906 13.034C12.7059 12.9487 12.5859 12.9275 12.3818 12.9275H11.7818V13.7828H11.2182V11.4358H12.5088C12.7906 11.4358 12.9953 11.4505 13.1782 11.5493C13.3547 11.6552 13.4676 11.804 13.4676 12.0728C13.4747 12.4399 13.2276 12.6305 13.0794 12.6869L13.08 12.6875ZM13.7847 11.4369H15.6471V11.9246H14.3353V12.3481H15.6118V12.8293H14.3353V13.2958H15.6471V13.7834H13.7853L13.7847 11.4369ZM10.0188 12.5181H9.3V11.924H10.0259C10.2306 11.924 10.3647 12.0093 10.3647 12.2146C10.3647 12.4122 10.2306 12.5181 10.0188 12.5181ZM8.73529 13.564L7.87529 12.6105L8.73529 11.6846V13.564ZM6.52118 13.2887H5.14588V12.8222H6.37294V12.3416H5.14588V11.9175H6.54941L7.16294 12.6028L6.52118 13.2887ZM10.9641 12.2075C10.9641 12.8575 10.4776 12.9916 9.99059 12.9916H9.29294V13.7764H8.20588L7.51529 12.9987L6.80294 13.7764H4.58824V11.4293H6.83824L7.52882 12.1999L8.24118 11.4293H10.0259C10.4629 11.4369 10.9635 11.5569 10.9635 12.2069L10.9641 12.2075Z" fill="white"/>
</g>
</g>
<defs>
<clipPath id="clip0_21_611">
<rect width="20" height="20" fill="white" transform="translate(0 0.375)"/>
</clipPath>
</defs>
</svg>
