<svg width="20" height="21" viewBox="0 0 20 21" fill="none" xmlns="http://www.w3.org/2000/svg">
<g clip-path="url(#clip0_21_597)">
<path d="M18.2353 0.375H1.76471C0.790086 0.375 0 1.16509 0 2.13971V18.6103C0 19.5849 0.790086 20.375 1.76471 20.375H18.2353C19.2099 20.375 20 19.5849 20 18.6103V2.13971C20 1.16509 19.2099 0.375 18.2353 0.375Z" fill="#122B79"/>
<path d="M12.2259 14.0129H7.77417V6.14941H12.2259V14.0129Z" fill="#6C6BBD"/>
<path d="M8.057 10.0811C8.057 8.48813 8.81582 7.06578 9.99994 6.14931C9.09908 5.45369 7.99223 5.07785 6.85406 5.08108C4.0423 5.08108 1.76465 7.31872 1.76465 10.0811C1.76465 12.8434 4.0423 15.0811 6.85406 15.0811C7.99223 15.0843 9.09908 14.7085 9.99994 14.0128C8.81641 13.0964 8.057 11.6805 8.057 10.0811Z" fill="#D32011"/>
<path d="M18.2353 10.0811C18.2353 12.8434 15.9576 15.0811 13.1459 15.0811C12.0077 15.0843 10.9009 14.7085 10 14.0128C11.1835 13.0964 11.9429 11.674 11.9429 10.0811C11.9429 8.48813 11.1841 7.06578 10 6.14931C10.9009 5.45369 12.0077 5.07785 13.1459 5.08108C15.9576 5.08108 18.2353 7.31872 18.2353 10.0811Z" fill="#0099DF"/>
</g>
<defs>
<clipPath id="clip0_21_597">
<rect width="20" height="20" fill="white" transform="translate(0 0.375)"/>
</clipPath>
</defs>
</svg>
