<svg width="20" height="21" viewBox="0 0 20 21" fill="none" xmlns="http://www.w3.org/2000/svg">
<g clip-path="url(#clip0_21_604)">
<path d="M18.2353 0.375H1.76471C0.790086 0.375 0 1.16509 0 2.13971V18.6103C0 19.5849 0.790086 20.375 1.76471 20.375H18.2353C19.2099 20.375 20 19.5849 20 18.6103V2.13971C20 1.16509 19.2099 0.375 18.2353 0.375Z" fill="black"/>
<path d="M12.4923 6.15293H7.52173V14.5818H12.4923V6.15234V6.15293Z" fill="#FF5F00"/>
<path d="M8.02358 10.3822C8.02358 8.74398 8.75358 7.18045 10.0001 6.16751C7.76476 4.33574 4.51358 4.73809 2.75123 7.06162C0.989465 9.38398 1.37594 12.7646 3.62535 14.5816C5.50182 16.1152 8.12358 16.1152 10.0001 14.5963C9.38072 14.0827 8.88243 13.4387 8.54077 12.7102C8.19911 11.9817 8.02251 11.1868 8.02358 10.3822Z" fill="#EB001B"/>
<path d="M17.8506 13.7028V13.5239H17.9218V13.4945H17.75V13.5239H17.8218V13.7028H17.8506ZM18.18 13.7028V13.4945H18.1224L18.0653 13.6434L18.0076 13.4945H17.9506V13.7028H17.9935V13.5392L18.0512 13.6734H18.0935L18.1512 13.5392V13.7028H18.18ZM18.3376 10.3822C18.3376 13.3457 16.0312 15.7434 13.18 15.7434C12.0187 15.7433 10.8939 15.3376 10 14.5963C12.2353 12.7645 12.6218 9.38454 10.8735 7.06101C10.6206 6.72363 10.3273 6.41861 10 6.15277C12.2353 4.32101 15.4865 4.72336 17.2488 7.06101C17.9506 7.99924 18.3376 9.17571 18.3376 10.3822Z" fill="#F79E1B"/>
</g>
<defs>
<clipPath id="clip0_21_604">
<rect width="20" height="20" fill="white" transform="translate(0 0.375)"/>
</clipPath>
</defs>
</svg>
