<svg width="20" height="21" viewBox="0 0 20 21" fill="none" xmlns="http://www.w3.org/2000/svg">
<g clip-path="url(#clip0_21_565)">
<path d="M18.2353 0.125H1.76471C0.790086 0.125 0 0.915086 0 1.88971V18.3603C0 19.3349 0.790086 20.125 1.76471 20.125H18.2353C19.2099 20.125 20 19.3349 20 18.3603V1.88971C20 0.915086 19.2099 0.125 18.2353 0.125Z" fill="#CCEDFC"/>
<mask id="mask0_21_565" style="mask-type:luminance" maskUnits="userSpaceOnUse" x="2" y="3" width="15" height="14">
<path d="M2.94116 3.6543H16.4706V16.5955H2.94116V3.6543Z" fill="white"/>
</mask>
<g mask="url(#mask0_21_565)">
<path d="M12.0705 13.1133H11.0187C10.9844 13.1133 10.9511 13.125 10.9243 13.1465C10.8976 13.168 10.879 13.198 10.8716 13.2315L10.4463 15.8398C10.4369 15.8915 10.481 15.9392 10.5346 15.9392H11.0722C11.0967 15.9394 11.1205 15.931 11.1393 15.9154C11.1582 15.8997 11.1709 15.878 11.1752 15.8539L11.2975 15.1168C11.3069 15.0462 11.3705 14.9992 11.4446 14.9992H11.7763C12.4705 14.9992 12.8716 14.6727 12.9746 14.0303C13.0234 13.7515 12.9746 13.5292 12.8422 13.3733C12.691 13.2027 12.4222 13.1133 12.0699 13.1133H12.0705ZM12.1922 14.0633C12.1334 14.4268 11.8452 14.4268 11.5663 14.4268H11.4099L11.5222 13.7468C11.5269 13.7039 11.5663 13.6762 11.6105 13.6762H11.6834C11.8746 13.6762 12.0552 13.6762 12.1434 13.7798C12.1969 13.8456 12.2163 13.9356 12.1922 14.0633Z" fill="#009ADE"/>
<path d="M4.56464 13.1133H3.51346C3.47914 13.1133 3.44586 13.125 3.41911 13.1465C3.39237 13.168 3.37377 13.198 3.3664 13.2315L2.94111 15.8398C2.93169 15.8915 2.97522 15.9392 3.02934 15.9392H3.53287C3.56719 15.9392 3.60047 15.9274 3.62722 15.9059C3.65396 15.8844 3.67256 15.8544 3.67993 15.8209L3.79169 15.1168C3.80169 15.0462 3.86522 14.9992 3.93875 14.9992H4.27111C4.96522 14.9992 5.3664 14.6727 5.46934 14.0303C5.51816 13.7515 5.46934 13.5292 5.33699 13.3733C5.18052 13.2027 4.9164 13.1133 4.56464 13.1133ZM4.68699 14.0633C4.62816 14.4268 4.33993 14.4268 4.06111 14.4268H3.90464L4.0164 13.7468C4.02228 13.7039 4.06111 13.6762 4.10464 13.6762H4.17816C4.36875 13.6762 4.54993 13.6762 4.63758 13.7798C4.69169 13.8456 4.7064 13.9356 4.68699 14.0633ZM7.70875 14.0539H7.20464C7.18399 14.0535 7.16386 14.0603 7.14774 14.0732C7.13161 14.0861 7.12052 14.1042 7.1164 14.1245L7.09287 14.2615L7.05816 14.2145C6.95052 14.0633 6.7064 14.0109 6.46169 14.0109C5.90405 14.0109 5.42993 14.4174 5.33699 14.9892C5.28816 15.2727 5.3564 15.5468 5.52287 15.7362C5.67464 15.9103 5.89464 15.9815 6.15816 15.9815C6.60816 15.9815 6.85816 15.7027 6.85816 15.7027L6.83346 15.8398C6.82346 15.8915 6.86758 15.9392 6.92169 15.9392H7.37581C7.41013 15.9392 7.44341 15.9274 7.47016 15.9059C7.4969 15.8844 7.5155 15.8544 7.52287 15.8209L7.7964 14.1527C7.8064 14.1009 7.76758 14.0539 7.70875 14.0539ZM7.00934 15.0033C6.96052 15.2821 6.73052 15.4662 6.44228 15.4662C6.29522 15.4662 6.17758 15.4192 6.10464 15.3345C6.06683 15.2872 6.04016 15.2321 6.02661 15.1731C6.01307 15.1141 6.01299 15.0529 6.0264 14.9939C6.07052 14.7198 6.30522 14.5262 6.59346 14.5262C6.73581 14.5262 6.85287 14.5733 6.93111 14.6586C6.99934 14.7433 7.02875 14.8662 7.00934 15.0033Z" fill="#002F87"/>
<path d="M15.2188 14.0537H14.7152C14.6946 14.0533 14.6745 14.0601 14.6583 14.073C14.6422 14.0859 14.6311 14.104 14.627 14.1243L14.6029 14.2613L14.5688 14.2143C14.4611 14.0631 14.2164 14.0107 13.9723 14.0107C13.4147 14.0107 12.9405 14.4172 12.8476 14.989C12.7988 15.2725 12.867 15.5466 13.0335 15.736C13.1847 15.9102 13.4047 15.9813 13.6688 15.9813C14.1188 15.9813 14.3682 15.7025 14.3682 15.7025L14.3435 15.8396C14.3341 15.8913 14.3776 15.939 14.4317 15.939H14.8864C14.9207 15.939 14.954 15.9273 14.9808 15.9057C15.0075 15.8842 15.0261 15.8543 15.0335 15.8207L15.307 14.1525C15.3083 14.1401 15.307 14.1276 15.3032 14.1157C15.2994 14.1038 15.2931 14.0929 15.2848 14.0835C15.2765 14.0742 15.2663 14.0668 15.2549 14.0616C15.2436 14.0565 15.2313 14.0538 15.2188 14.0537ZM14.5147 15.0031C14.4658 15.2819 14.2358 15.466 13.9476 15.466C13.8005 15.466 13.6835 15.419 13.61 15.3343C13.5722 15.287 13.5455 15.2319 13.532 15.1729C13.5184 15.1139 13.5184 15.0527 13.5317 14.9937C13.5758 14.7196 13.8105 14.526 14.0994 14.526C14.2405 14.526 14.3582 14.5731 14.4364 14.6584C14.51 14.7431 14.5394 14.866 14.5147 15.0031Z" fill="#009ADE"/>
<path d="M10.3928 14.0538H9.88459C9.86087 14.054 9.8375 14.0596 9.81628 14.0702C9.79507 14.0808 9.77658 14.0961 9.76224 14.115L9.06282 15.1074L8.76459 14.1527C8.75507 14.1229 8.73603 14.0971 8.71042 14.0793C8.6848 14.0614 8.65402 14.0525 8.62282 14.0538H8.124C8.06518 14.0538 8.02165 14.1103 8.04106 14.1674L8.59812 15.7497L8.07518 16.4633C8.03635 16.5203 8.07518 16.5956 8.14871 16.5956H8.66224C8.71106 16.5956 8.75459 16.5721 8.784 16.5344L10.4711 14.1862C10.4791 14.1727 10.4833 14.1573 10.4833 14.1415C10.4834 14.1258 10.4792 14.1104 10.4712 14.0968C10.4632 14.0833 10.4517 14.0722 10.4379 14.0646C10.4241 14.057 10.4085 14.0533 10.3928 14.0538Z" fill="#002F87"/>
<path d="M15.8105 13.1838L15.3805 15.8396C15.3705 15.8914 15.4146 15.9391 15.4688 15.9391H15.9035C15.9378 15.939 15.9711 15.9273 15.9978 15.9058C16.0246 15.8843 16.0432 15.8543 16.0505 15.8208L16.4758 13.2126C16.4852 13.1608 16.4411 13.1132 16.3876 13.1132H15.8988C15.8781 13.1128 15.858 13.1196 15.8419 13.1325C15.8257 13.1454 15.8147 13.1635 15.8105 13.1838ZM12.9894 5.79964C13.097 5.14258 12.9893 4.69846 12.6223 4.29199C12.2164 3.84317 11.4835 3.65434 10.5493 3.65434H7.83523C7.74438 3.65291 7.65601 3.68402 7.5861 3.74207C7.51619 3.80011 7.46935 3.88125 7.45406 3.97082L6.31994 10.8973C6.29523 11.0343 6.40817 11.1573 6.54935 11.1573H8.22641L8.10935 11.8661C8.08994 11.9838 8.18758 12.0926 8.30935 12.0926H9.72288C9.88935 12.0926 10.0311 11.9749 10.0605 11.8143L10.0746 11.7432L10.3393 10.1132L10.3588 10.0232C10.3722 9.94399 10.4136 9.87226 10.4754 9.82108C10.5373 9.76989 10.6155 9.74266 10.6958 9.74435H10.9064C12.2752 9.74435 13.3458 9.20611 13.6594 7.65611C13.7911 7.00905 13.7223 6.46552 13.3752 6.08258C13.2652 5.96517 13.1344 5.86923 12.9894 5.79964Z" fill="#009ADE"/>
<path d="M12.9894 5.79964C13.097 5.14258 12.9893 4.69846 12.6223 4.29199C12.2164 3.84317 11.4835 3.65434 10.5493 3.65434H7.83523C7.74438 3.65291 7.65601 3.68402 7.5861 3.74207C7.51619 3.80011 7.46935 3.88125 7.45406 3.97082L6.31994 10.8973C6.29523 11.0343 6.40817 11.1573 6.54935 11.1573H8.22641L8.647 8.57787L8.63229 8.65787C8.6476 8.5682 8.69453 8.48699 8.76456 8.42893C8.83459 8.37088 8.9231 8.33982 9.01406 8.3414H9.81111C11.3758 8.3414 12.5982 7.72729 12.9599 5.95082C12.9693 5.89846 12.9794 5.8467 12.9894 5.79964Z" fill="#002169"/>
<path d="M9.1017 5.80905C9.11665 5.7305 9.15858 5.65965 9.22023 5.60873C9.28189 5.55782 9.35939 5.53005 9.43935 5.53023H11.5664C11.8205 5.53023 12.0552 5.54434 12.2705 5.57729C12.3341 5.5867 12.3929 5.59611 12.4511 5.61023C12.5099 5.62434 12.5635 5.63846 12.6223 5.65317C12.6517 5.66258 12.6764 5.66729 12.7005 5.6767C12.8082 5.70964 12.9064 5.75199 12.9941 5.79434C13.1017 5.13787 12.9941 4.69434 12.6276 4.28729C12.2158 3.84317 11.4829 3.65434 10.5488 3.65434H7.83523C7.74438 3.65291 7.65601 3.68402 7.5861 3.74207C7.51619 3.80011 7.46935 3.88125 7.45406 3.97082L6.31994 10.8973C6.29523 11.0343 6.40817 11.1573 6.54935 11.1573H8.22641L8.647 8.57787L9.1017 5.80905Z" fill="#002F87"/>
</g>
</g>
<defs>
<clipPath id="clip0_21_565">
<rect width="20" height="20" fill="white" transform="translate(0 0.125)"/>
</clipPath>
</defs>
</svg>
