<svg width="20" height="21" viewBox="0 0 20 21" fill="none" xmlns="http://www.w3.org/2000/svg">
<path d="M18.2353 0.375H1.76471C0.790086 0.375 0 1.16509 0 2.13971V18.6103C0 19.5849 0.790086 20.375 1.76471 20.375H18.2353C19.2099 20.375 20 19.5849 20 18.6103V2.13971C20 1.16509 19.2099 0.375 18.2353 0.375Z" fill="#FEF0D4"/>
<path fill-rule="evenodd" clip-rule="evenodd" d="M7.39354 12.0521L8.4759 8.68974H9.45002L8.35766 12.0521H7.39296H7.39354ZM6.9606 8.68974L6.09413 10.1121C5.86825 10.4821 5.74001 10.6756 5.68119 10.9062H5.6706C5.6906 10.6109 5.64119 10.2415 5.64119 10.0386L5.54296 8.68974H3.91001L3.89001 8.78209C4.31354 8.78209 4.55943 8.97621 4.62825 9.38268L4.94296 12.0521H5.94707L7.97413 8.68974H6.9606ZM14.4882 12.0427L14.4588 11.5439H13.2483L13.0024 12.0427H11.9494L13.8588 8.68974H15.1477L15.4724 12.0427H14.4882ZM14.38 10.0662C14.37 9.8168 14.3606 9.48386 14.38 9.28092H14.37C14.3112 9.44739 14.0553 9.94562 13.9471 10.1956L13.583 10.9344H14.4294L14.38 10.0662ZM10.4635 12.1444C9.78472 12.1444 9.32237 11.9409 9.00707 11.7562L9.47002 11.0915C9.76472 11.2486 9.99119 11.4239 10.513 11.4239C10.68 11.4239 10.8477 11.3868 10.9365 11.2297C11.0735 11.0086 10.9065 10.8974 10.523 10.6944L10.3359 10.5833C9.77472 10.2233 9.52884 9.88151 9.79472 9.29033C9.96178 8.91151 10.4047 8.61621 11.1424 8.61621C11.6447 8.61621 12.1265 8.81915 12.4024 9.02209L11.8706 9.60445C11.6053 9.40151 11.3788 9.29974 11.123 9.29974C10.9165 9.29974 10.7588 9.37327 10.7094 9.47503C10.6112 9.65974 10.7388 9.78915 11.0341 9.96445L11.2606 10.0939C11.9394 10.5003 12.1071 10.9162 11.93 11.3133C11.6347 11.9874 11.0635 12.1444 10.4635 12.1444ZM15.7577 9.14268H15.7183V8.90268H15.8171C15.8759 8.90268 15.9053 8.92092 15.9053 8.96739C15.9053 9.01327 15.8759 9.03209 15.8365 9.03209L15.9053 9.13327H15.8559L15.7871 9.03151H15.7477L15.7577 9.14268ZM15.8071 9.00386C15.8365 9.00386 15.8659 9.00386 15.8659 8.9668C15.8659 8.93915 15.8365 8.93033 15.8071 8.93033H15.7577V9.00386H15.8071ZM15.8071 9.23503C15.6788 9.23503 15.5806 9.14268 15.5806 9.02268C15.5806 8.89327 15.6888 8.81033 15.8071 8.81033C15.9247 8.81033 16.0335 8.89268 16.0335 9.02209C16.0335 9.15151 15.9253 9.23503 15.8071 9.23503ZM15.8071 8.83798C15.7838 8.83742 15.7607 8.84156 15.7391 8.85015C15.7175 8.85874 15.6978 8.8716 15.6813 8.88797C15.6647 8.90433 15.6517 8.92387 15.6429 8.9454C15.6341 8.96693 15.6297 8.99001 15.63 9.01327C15.63 9.11503 15.6988 9.18856 15.8065 9.18856C15.8298 9.1892 15.853 9.18512 15.8747 9.17657C15.8964 9.16801 15.9161 9.15516 15.9327 9.13879C15.9493 9.12241 15.9624 9.10285 15.9712 9.08128C15.9801 9.05971 15.9845 9.03658 15.9841 9.01327C15.9845 8.99001 15.9801 8.96693 15.9713 8.9454C15.9625 8.92387 15.9494 8.90433 15.9329 8.88797C15.9164 8.8716 15.8967 8.85874 15.8751 8.85015C15.8535 8.84156 15.8303 8.83742 15.8071 8.83798Z" fill="#005596"/>
<path fill-rule="evenodd" clip-rule="evenodd" d="M17.6471 12.9424L2.21826 12.9524V15.0812H17.6477L17.6471 12.9424Z" fill="#F7AA0F"/>
<path fill-rule="evenodd" clip-rule="evenodd" d="M17.6471 4.8669H2.21826V7.39631H17.6477V2.69043L17.6471 4.8669Z" fill="#005596"/>
</svg>
